<svg width="304" height="305" viewBox="0 0 304 305" fill="none" xmlns="http://www.w3.org/2000/svg">
<path d="M68.711 213.659L126.944 230.24L82.6355 272.583L68.711 213.659Z" stroke="#038373" stroke-width="6"/>
<path d="M53.4885 112.436L236.599 85.9367L165.927 259.369L53.4885 112.436Z" stroke="#038373" stroke-width="6"/>
<path d="M151.556 30.787L178.787 55.571L143.2 66.6468L151.556 30.787Z" stroke="#038373" stroke-width="6"/>
<path d="M88.8965 67.0479L106.426 59.7903L103.664 78.9599L88.8965 67.0479Z" stroke="#038373" stroke-width="6"/>
<path d="M63.3809 205.631L119.815 227.567L71.7533 265.597L63.3809 205.631Z" fill="#F4F4F4"/>
<path d="M57.6581 103.43L242.441 94.1111L155.914 260.203L57.6581 103.43Z" fill="#F4F4F4"/>
<path d="M162.908 31.2758L187.711 58.4896L151.247 66.2007L162.908 31.2758Z" fill="#F4F4F4"/>
<path d="M97.1414 61.5394L115.271 55.947L110.734 74.7757L97.1414 61.5394Z" fill="#F4F4F4"/>
</svg>
