<svg width="513" height="516" viewBox="0 0 513 516" fill="none" xmlns="http://www.w3.org/2000/svg">
<path d="M115.738 361.461L214.346 389.539L139.317 461.24L115.738 361.461Z" stroke="#038373" stroke-width="6"/>
<path d="M89.9612 190.057L400.03 145.184L280.358 438.864L89.9612 190.057Z" stroke="#038373" stroke-width="6"/>
<path d="M256.023 51.7975L302.134 93.7652L241.873 112.52L256.023 51.7975Z" stroke="#038373" stroke-width="6"/>
<path d="M149.919 113.199L179.603 100.91L174.925 133.37L149.919 113.199Z" stroke="#038373" stroke-width="6"/>
<path d="M106.713 347.866L202.275 385.012L120.89 449.409L106.713 347.866Z" fill="#F4F4F4"/>
<path d="M97.0221 174.806L409.923 159.025L263.403 440.275L97.0221 174.806Z" fill="#F4F4F4"/>
<path d="M275.246 52.6241L317.245 98.7064L255.499 111.764L275.246 52.6241Z" fill="#F4F4F4"/>
<path d="M163.882 103.871L194.582 94.4009L186.899 126.284L163.882 103.871Z" fill="#F4F4F4"/>
</svg>
