<svg width="393" height="611" viewBox="0 0 393 611" fill="none" xmlns="http://www.w3.org/2000/svg">
<path d="M140.662 428.305L260.639 461.548L169.351 546.439L140.662 428.305Z" stroke="#00CC8E" stroke-width="6"/>
<path d="M109.299 225.371L486.561 172.243L340.956 519.947L109.299 225.371Z" stroke="#00CC8E" stroke-width="6"/>
<path d="M311.348 61.6776L367.451 111.365L294.132 133.571L311.348 61.6776Z" stroke="#00CC8E" stroke-width="6"/>
<path d="M182.25 134.374L218.366 119.824L212.675 158.256L182.25 134.374Z" stroke="#00CC8E" stroke-width="6"/>
<path d="M129.682 412.209L245.952 456.188L146.931 532.431L129.682 412.209Z" fill="#F4F4F4"/>
<path d="M117.891 207.314L498.599 188.63L320.327 521.617L117.891 207.314Z" fill="#F4F4F4"/>
<path d="M334.737 62.6564L385.837 117.216L310.711 132.675L334.737 62.6564Z" fill="#F4F4F4"/>
<path d="M199.239 123.329L236.592 112.117L227.244 149.866L199.239 123.329Z" fill="#F4F4F4"/>
</svg>
